# xmcd CD database file
#
# Track frame offsets:
#	150
#	24817
#	42002
#	62895
#	83742
#	102272
#	124797
#	142785
#	174445
#	195377
#
# Disc length: 2823 seconds
#
# Revision: 0
# Processed by: cddbd v1.5.1PL2 Copyright (c) Steve Scherf et al.
# Submitted via: CDex 1.51
#
DISCID=720b050a
DTITLE=Various Artist - THE 八犬伝〜新章〜 ベスト・アルバム
DYEAR=1995
DGENRE=Anime
TTITLE0=仁：空と大地の間で - 日高のりこ
TTITLE1=義：水の引力 - 山口勝平
TTITLE2=礼：鳥が行く道 - 大塚明夫
TTITLE3=智：うたかたの宴 - 高山みなみ
TTITLE4=迷いの船出 - THE 八犬士
TTITLE5=忠：狼は夢を見ない - 山寺宏一
TTITLE6=信：落ちてゆく涙 - 西村智博
TTITLE7=疾風の八人（ナレーション） - 疾風の八人（ナレーション）
TTITLE8=孝：愛する時と死する時 - 関俊彦
TTITLE9=悌：そよ吹く風のごとく - 玄田哲章
EXTD=YEAR: 1995
EXTT0=
EXTT1=
EXTT2=
EXTT3=
EXTT4=
EXTT5=
EXTT6=
EXTT7=
EXTT8=
EXTT9=
PLAYORDER=
